<svg xmlns="http://www.w3.org/2000/svg" width="350.838" height="855.253" viewBox="0 0 350.838 855.253"><path d="M206.4-631.877c2.293-11.3-4.809-26.528,1.713-53.052.921-3.749,10.54-5.765,12.312-10.376,0,0-16.5.455-20.748,1.818-2.17,11.445-4.5,37.646,6.723,61.61" transform="translate(0.389 1132.157)" fill="rgba(0,78,76,0.22)"/><path d="M199.108-688.906c5.874.241,15.465.48,20.552-2.587-9.482-4.614-8.627-20.463,5.009-21.614,10.665.573,17.4,12.4,8.167,20.174,9.229-1.634,19.214-8.9,23.741-15.308,6.331-8.934,6.472-11.211,17.053-14.193l-1.338-1.3c-27.725-4.882-79.132-2.22-73.185,34.825" transform="translate(0.93 1110.78)" fill="rgba(0,78,76,0.22)"/><path d="M276.9-726.879l3.164,1.192c-16.6-19.087-76.341-47.085-82.312-3.019,24.52-12.394,51.084-12.919,79.148,1.827" transform="translate(0.306 1091.988)" fill="rgba(0,78,76,0.22)"/><path d="M228.528-716.819c15.283-.853,24.679-6.267,30.453-14.912,9.225-2.12,26.044-14.082,30.184-21.544,3.515-6.3,10.481-18.964,10.078-25.941-9.482,5.765-22.251,5.189-24.783-2.229-1.265-3.724-.409-7.569.778-12.758,2.37-17.872,9.2-26.23,10.3-28.159,5.769-10.126,16.241-2.764,16.862-13.322a31,31,0,0,0-5.817-7.817c-20.641-18.53-34.839,33.385-37.646,45.84-5.417,24.035-2.575,76.161-34.381,79.551-1.909.1.068,1.431-2.032,1.392a35.584,35.584,0,0,0,6.008-.1" transform="translate(17.799 1024.704)" fill="rgba(0,78,76,0.22)"/><path d="M148.659-885.94c16.518,1.722,31.025,21.942,28.828,37.566-1.8,12.753-15.516,19.938-30.291,11.959-15.074-6.1-25.933-53.564,1.463-49.526ZM281.7-826.825c32.152,25.284,41.1,60.079,17.5,66.329-16.236,4.3-26.08-18.759-37.63-24.881-22.363-11.853-22.852,16.9-32.812,25.518-24.64,21.309-63.108-29.752-60.7-37.2C187.681-857.94,259.405-844.354,281.7-826.825Zm-53.484-89.1c15.2,14.166,15.913,42.487,2.236,54.19-11.177,9.55-24.924,7.316-33.783-10.874-9.953-15.875,1.743-67.737,31.547-43.315Zm38.852,20.677c9.066-11.357,23.316-21.357,34.2-17.692,13.827,4.65,9.712,35.257,5.319,44.041-9.036,18.068-26.442,17.768-31.742,16.639S252.142-870.655,267.072-895.247Zm49.362,49.5c9.917-15.276,50.031-31.694,39.607,8.727-6.8,15.9-22.69,25.919-34.766,19.662-8.44-4.363-14.753-13.113-4.841-28.389ZM142.015-614.319c-7.7-2.423-37.683,4.322-47.1,10.906,4.657-12.61,20.116-26.524,31.283-34.268-32.14-44.02-34.261-120.152-18.774-140.1,18.442-23.778,31.354-9.776,47.312,5.414,28.536,27.172,43.512,46.878,59.225,56.519,3.017-2.675,12.151-11.432,14.337-14.653,4-5.876,6.106-12.039,7.021-19.949,4.868,5.4,5.464,16.93,3.092,23.849,10.428-6.222,15.968-31.87,16.3-43.809,5.926,9.223,9.268,14.576,13.029,22.829,3.419,7.5,9.134,13.788,12.806,20.991,1.442-9.077.544-17.3-1.922-26.708,17.754,8.84,20.09,36.957,20.643,37.45,15.715-9.641,30.694-29.347,59.226-56.519,15.957-15.19,28.869-29.192,47.31-5.414,15.488,19.951,13.368,96.083-18.773,140.1,11.168,7.744,26.628,21.658,31.283,34.268-9.418-6.584-41.627-14.992-47.1-10.906,23.434,7.917,33.451,14.294,46.652,35.437,8.115,12.995,12.476,27.311,14.635,36.424V-792.844c0-23.239-19.412-43.8-39.973-38.654,6.854-13.707,1.718-65.093-47.961-59.954,10.278-35.969-49.671-73.656-87.358-41.108-37.687-37.687-80.818-11.038-92.5,13.7-37.686-23.983-83.049,3.426-83.049,34.156v338.5c2.394-9.013,6.618-21.35,13.685-32.68,13.206-21.143,23.226-27.52,46.659-35.437" transform="translate(-81.671 951.34)" fill="rgba(0,78,76,0.22)"/><path d="M179.317-691.492c5.091,3.067,14.678,2.828,20.554,2.587,5.949-37.045-45.458-39.707-73.186-34.825l-1.341,1.3c10.59,2.982,10.724,5.26,17.055,14.193,4.532,6.4,14.51,13.675,23.744,15.308-9.234-7.776-2.5-19.6,8.167-20.174,13.636,1.151,14.494,17,5.007,21.614" transform="translate(-50.828 1110.779)" fill="rgba(0,78,76,0.22)"/><path d="M168.781-684.929c6.525,26.524.278,41.748,2.573,53.052,11.225-23.964,8.888-50.165,6.718-61.61-4.243-1.363-20.75-1.818-20.75-1.818,1.777,4.611,10.54,6.627,11.459,10.376" transform="translate(-28.245 1132.157)" fill="rgba(0,78,76,0.22)"/><path d="M172.942-717.046a35.613,35.613,0,0,0,6.01.1c-2.1.039-.123-1.288-2.036-1.392-31.8-3.39-28.959-55.516-34.379-79.551-2.8-12.455-14.09-62.648-37.639-45.84-3.732,2.659-5.821,7.817-5.821,7.817.621,10.558,11.094,3.2,16.863,13.322,1.094,1.929,7.924,10.287,10.3,28.159,1.182,5.189,2.042,9.034.779,12.758-2.533,7.419-15.305,7.994-24.787,2.229-.4,6.977,6.562,19.637,10.074,25.941,4.144,7.462,20.964,19.424,30.188,21.544,5.775,8.645,15.169,14.059,30.45,14.912" transform="translate(-69.378 1024.931)" fill="rgba(0,78,76,0.22)"/><path d="M276.029-500.547c-29.695,43.392-71.945,95.355-103.92,121.621-1.308,1.074-2.6,2.113-3.886,3.133h203.16V-555.28c-9.332,7.962-22.042,16.539-34.832,20.475-34.729,10.685-40.656,5.223-60.523,34.259" transform="translate(-20.546 1231.046)" fill="rgba(0,78,76,0.22)"/><path d="M165.178-612.779c-6.654,8.595-3.435,24.87,9.832,21.212-17.017-19.549,30.141-17.738,5.16,5.806,7.3,3.854,13.582,5.667,19.9,5.508h0c.043,0,.089,0,.13,0s.086,0,.134,0h0c6.318.159,12.6-1.654,19.9-5.508-24.981-23.544,22.176-25.354,5.16-5.806,13.265,3.658,16.484-12.617,9.832-21.212-6.768-8.745-16.919-9.293-27.527-9.373a26.985,26.985,0,0,0-6.613-.077c-.255-.03-.507-.041-.753-.059v-.023c-.048,0-.089.007-.134.009l-.13-.009v.023c-.25.018-.5.029-.758.059a26.951,26.951,0,0,0-6.609.077c-10.613.08-20.759.628-27.527,9.373" transform="translate(-25.067 1183.647)" fill="rgba(0,78,76,0.22)"/><path d="M150.187-629.433s40.226,96.9-22.3,134.586c7.405,11.9,10.819,14.726,17.128,27.406,18.048,36.274,22.71,76.839,7.138,119.62,19.362-15.445,22.108-17.458,41.111-29.693,68.872-44.352,89.993-48.518,104.614-58.471,32.359-22.022,39.168-31.611,57.2-64.2,30.346-54.865,57.2-67.7,66.538-73.545a37.342,37.342,0,0,1,10.892-2.709v-17.09a43.242,43.242,0,0,0-27.936,3.974c-19.112,9.689-37.12,28.162-59.406,63.433-7.548-35.557-1.936-76.329,26.326-113.62,3.927,5.74,11.782,13.256,27.136,17.435,3.836,1.044,19.569,1.729,33.881,9.673v-87.811c-14.239-15.49-38.014-16.923-38.014-16.923,14.4,17.847,26.879,35.851,18.884,70.3-15.449-7.883-43.131-27.415-64.522,5.087-13.229,20.1-17.774,32.857-21.564,55.534-3.824,22.888-6.666,52.94-13.584,66.913-6.445,13.013-21.284,17.176-21.089,16.914-11.6,5.05-25.648,6.42-36.615,1.77-19.33,8.245-48.3-2.273-56.478-18.684-6.959-13.955-9.76-44.025-13.588-66.913-3.786-22.677-8.331-35.435-21.553-55.534-21.4-32.5-48.458-11.821-63.9-3.94-10.282-42.478,3.856-53.6,18.257-71.443,0,0-22.761,1.37-37.07,15.92v107.81c10.135-7.073,17.955-9.409,17.955-9.409,25.639-9.744,43.195-13.131,50.561-26.385" transform="translate(-81.671 1116.575)" fill="rgba(0,78,76,0.22)"/><path d="M122.419-725.687l3.16-1.192c28.067-14.746,54.634-14.221,79.147-1.827-5.969-44.066-65.7-16.068-82.307,3.019" transform="translate(-52.894 1091.988)" fill="rgba(0,78,76,0.22)"/><path d="M81.671-489.251v66.827h36.543c-5.52-7.676-10.812-16.2-16.3-24.833-3-4.716-10.967-20.973-20.241-41.993" transform="translate(-81.671 1277.677)" fill="rgba(0,78,76,0.22)"/></svg>