<svg xmlns="http://www.w3.org/2000/svg" width="69.103" height="69.103" viewBox="0 0 69.103 69.103">
  <g id="Gruppe_5" data-name="Gruppe 5" transform="translate(-2317.36 1065.784)">
    <g id="Gruppe_6" data-name="Gruppe 6" transform="translate(2317.36 -1065.784)">
      <path id="path100" d="M1157.463-918.233a34.551,34.551,0,0,1-34.552,34.551,34.551,34.551,0,0,1-34.552-34.551,34.552,34.552,0,0,1,34.552-34.552,34.552,34.552,0,0,1,34.552,34.552" transform="translate(-1088.36 952.784)" fill="#004e4c"/>
      <path id="path102" d="M1157.36-905.547a10.4,10.4,0,0,0-10.013-.232c.756-5.575,8.313-2.032,10.413.383Zm-2.491,4.736a5.288,5.288,0,0,1-3.005,1.937c1.168-.984.318-2.479-1.033-2.552a1.442,1.442,0,0,0-.633,2.734,5.436,5.436,0,0,1-2.6.328c-.752-4.688,5.751-5.025,9.26-4.407l.169.165C1155.687-902.229,1155.67-901.941,1154.869-900.811Zm-6.2,5.654c-.825,3.355.073,5.282-.217,6.713a13.457,13.457,0,0,1-.85-7.8,18.034,18.034,0,0,1,2.625-.23C1150-895.886,1148.785-895.631,1148.668-895.157Zm-1.034,18.326c2.152-2.473-3.813-2.244-.653.736a5.053,5.053,0,0,1-2.518.7h-.033a5.05,5.05,0,0,1-2.518-.7c3.161-2.98-2.806-3.209-.653-.736-1.677.463-2.085-1.6-1.244-2.683.856-1.106,2.14-1.176,3.483-1.186a3.394,3.394,0,0,1,.837-.01l.095-.007v0h.033v0l.1.007a3.391,3.391,0,0,1,.837.01c1.343.01,2.626.08,3.482,1.186C1149.72-878.427,1149.313-876.368,1147.634-876.831Zm-9.014-19.639a18.033,18.033,0,0,1,2.625.23,13.454,13.454,0,0,1-.85,7.8c-.29-1.43.5-3.358-.325-6.713C1139.952-895.631,1138.844-895.886,1138.62-896.47Zm-1.741-2.4a5.29,5.29,0,0,1-3-1.937c-.8-1.13-.818-1.418-2.157-1.8l.169-.165c3.509-.618,10.013-.281,9.26,4.407a5.432,5.432,0,0,1-2.6-.328,1.442,1.442,0,0,0-.634-2.734C1136.562-901.354,1135.711-899.858,1136.878-898.874Zm-5.792-6.521c2.1-2.415,9.658-5.957,10.413-.383a10.4,10.4,0,0,0-10.015.232Zm-3.367-12a8.492,8.492,0,0,1-1.275-3.282c1.2.729,2.816.656,3.137-.282a2.956,2.956,0,0,0-.1-1.614,7.693,7.693,0,0,0-1.3-3.562c-.73-1.282-2.054-.351-2.134-1.686a2.575,2.575,0,0,1,.737-.989c2.98-2.126,4.408,4.224,4.762,5.8.686,3.04.326,9.636,4.351,10.064.241.014-.009.182.257.177a4.474,4.474,0,0,1-.76-.013,4.554,4.554,0,0,1-3.853-1.886A8.128,8.128,0,0,1,1127.719-917.4Zm25.231,4.448c4.023-.429,3.665-7.024,4.35-10.064.355-1.576,2.152-8.143,4.763-5.8a3.924,3.924,0,0,1,.736.989c-.079,1.335-1.4.4-2.134,1.686a7.672,7.672,0,0,0-1.3,3.562,2.972,2.972,0,0,0-.1,1.614c.321.938,1.937,1.011,3.136.282a8.481,8.481,0,0,1-1.275,3.282,8.124,8.124,0,0,1-3.819,2.726,4.554,4.554,0,0,1-3.852,1.886,4.5,4.5,0,0,1-.762.013C1152.959-912.769,1152.709-912.937,1152.951-912.951Zm13.958,14.129a16.46,16.46,0,0,0-2.084-5.8c-1.671-2.676-2.938-3.482-5.9-4.484.692-.517,4.767.547,5.958,1.38-.589-1.6-2.544-3.355-3.958-4.335,4.066-5.57,4.335-15.2,2.375-17.726-2.333-3.008-3.967-1.237-5.985.685-3.61,3.438-5.506,5.932-7.493,7.151-.071-.062-.366-3.62-2.613-4.738a7.886,7.886,0,0,1,.244,3.379c-.465-.911-1.187-1.706-1.62-2.655a20.766,20.766,0,0,0-1.649-2.889c-.043,1.51-.744,4.755-2.062,5.543a3.482,3.482,0,0,0-.391-3.018,5.338,5.338,0,0,1-.888,2.525,18.29,18.29,0,0,1-1.813,1.854c-1.989-1.219-3.884-3.713-7.494-7.151-2.019-1.922-3.652-3.693-5.986-.685-1.959,2.524-1.691,12.156,2.375,17.726-1.414.98-3.369,2.74-3.958,4.335,1.191-.834,4.985-1.687,5.96-1.38-2.965,1-4.233,1.808-5.9,4.484a16.452,16.452,0,0,0-2.085,5.8c1.76-2.214,5.043-2.412,5.043-2.412-1.823,2.258-3.61,3.665-2.31,9.039,1.954-1,5.378-3.614,8.084.5a15.6,15.6,0,0,1,2.727,7.026c.484,2.9.839,6.7,1.72,8.467,1.035,2.076,4.7,3.407,7.146,2.363a6.089,6.089,0,0,0,4.632-.224,4.463,4.463,0,0,0,2.668-2.139c.876-1.769,1.235-5.571,1.719-8.467a15.606,15.606,0,0,1,2.728-7.026c2.707-4.113,6.209-1.641,8.164-.644,1.011-4.359-.568-6.637-2.39-8.895,0,0,3.284.2,5.042,2.412" transform="translate(-1109.602 939.253)" fill="#fff"/>
    </g>
  </g>
</svg>
