<?xml version="1.0"?>
<svg xmlns="http://www.w3.org/2000/svg" xmlns:xlink="http://www.w3.org/1999/xlink" version="1.1" width="220px" height="220px" viewBox="0 0 220 220"><rect x="0" y="0" width="220" height="220" fill="#ffffff" fill-opacity="1"/><path fill="#000000" fill-opacity="1" d="M11,11L53,11L53,17L11,17ZM71,11L77,11L77,17L71,17ZM83,11L89,11L89,17L83,17ZM101,11L107,11L107,17L101,17ZM137,11L143,11L143,17L137,17ZM155,11L161,11L161,17L155,17ZM167,11L209,11L209,17L167,17ZM11,17L17,17L17,23L11,23ZM47,17L53,17L53,23L47,23ZM59,17L65,17L65,23L59,23ZM71,17L77,17L77,23L71,23ZM89,17L95,17L95,23L89,23ZM101,17L119,17L119,23L101,23ZM125,17L131,17L131,23L125,23ZM167,17L173,17L173,23L167,23ZM203,17L209,17L209,23L203,23ZM11,23L17,23L17,29L11,29ZM23,23L41,23L41,29L23,29ZM47,23L53,23L53,29L47,29ZM83,23L89,23L89,29L83,29ZM95,23L101,23L101,29L95,29ZM119,23L137,23L137,29L119,29ZM149,23L155,23L155,29L149,29ZM167,23L173,23L173,29L167,29ZM179,23L197,23L197,29L179,29ZM203,23L209,23L209,29L203,29ZM11,29L17,29L17,35L11,35ZM23,29L41,29L41,35L23,35ZM47,29L53,29L53,35L47,35ZM59,29L77,29L77,35L59,35ZM83,29L89,29L89,35L83,35ZM95,29L107,29L107,35L95,35ZM113,29L125,29L125,35L113,35ZM143,29L149,29L149,35L143,35ZM155,29L161,29L161,35L155,35ZM167,29L173,29L173,35L167,35ZM179,29L197,29L197,35L179,35ZM203,29L209,29L209,35L203,35ZM11,35L17,35L17,41L11,41ZM23,35L41,35L41,41L23,41ZM47,35L53,35L53,41L47,41ZM65,35L71,35L71,41L65,41ZM95,35L101,35L101,41L95,41ZM107,35L113,35L113,41L107,41ZM131,35L149,35L149,41L131,41ZM155,35L161,35L161,41L155,41ZM167,35L173,35L173,41L167,41ZM179,35L197,35L197,41L179,41ZM203,35L209,35L209,41L203,41ZM11,41L17,41L17,47L11,47ZM47,41L53,41L53,47L47,47ZM59,41L71,41L71,47L59,47ZM77,41L89,41L89,47L77,47ZM101,41L119,41L119,47L101,47ZM131,41L137,41L137,47L131,47ZM143,41L149,41L149,47L143,47ZM167,41L173,41L173,47L167,47ZM203,41L209,41L209,47L203,47ZM11,47L53,47L53,53L11,53ZM59,47L65,47L65,53L59,53ZM71,47L77,47L77,53L71,53ZM83,47L89,47L89,53L83,53ZM95,47L101,47L101,53L95,53ZM107,47L113,47L113,53L107,53ZM119,47L125,47L125,53L119,53ZM131,47L137,47L137,53L131,53ZM143,47L149,47L149,53L143,53ZM155,47L161,47L161,53L155,53ZM167,47L209,47L209,53L167,53ZM65,53L83,53L83,59L65,59ZM119,53L143,53L143,59L119,59ZM149,53L155,53L155,59L149,59ZM11,59L41,59L41,65L11,65ZM47,59L71,59L71,65L47,65ZM77,59L83,59L83,65L77,65ZM101,59L113,59L113,65L101,65ZM119,59L125,59L125,65L119,65ZM143,59L149,59L149,65L143,65ZM161,59L167,59L167,65L161,65ZM173,59L179,59L179,65L173,65ZM185,59L191,59L191,65L185,65ZM197,59L203,59L203,65L197,65ZM11,65L23,65L23,71L11,71ZM35,65L41,65L41,71L35,71ZM59,65L65,65L65,71L59,71ZM71,65L77,65L77,71L71,71ZM83,65L95,65L95,71L83,71ZM107,65L113,65L113,71L107,71ZM125,65L149,65L149,71L125,71ZM155,65L167,65L167,71L155,71ZM173,65L179,65L179,71L173,71ZM185,65L197,65L197,71L185,71ZM11,71L23,71L23,77L11,77ZM29,71L65,71L65,77L29,77ZM71,71L77,71L77,77L71,77ZM89,71L119,71L119,77L89,77ZM125,71L131,71L131,77L125,77ZM143,71L149,71L149,77L143,77ZM155,71L167,71L167,77L155,77ZM173,71L191,71L191,77L173,77ZM197,71L203,71L203,77L197,77ZM17,77L35,77L35,83L17,83ZM59,77L65,77L65,83L59,83ZM83,77L95,77L95,83L83,83ZM125,77L137,77L137,83L125,83ZM149,77L155,77L155,83L149,83ZM161,77L173,77L173,83L161,83ZM191,77L209,77L209,83L191,83ZM11,83L17,83L17,89L11,89ZM35,83L41,83L41,89L35,89ZM47,83L53,83L53,89L47,89ZM59,83L77,83L77,89L59,89ZM83,83L89,83L89,89L83,89ZM95,83L113,83L113,89L95,89ZM131,83L137,83L137,89L131,89ZM143,83L149,83L149,89L143,89ZM173,83L185,83L185,89L173,89ZM191,83L203,83L203,89L191,89ZM11,89L17,89L17,95L11,95ZM23,89L35,89L35,95L23,95ZM41,89L47,89L47,95L41,95ZM53,89L59,89L59,95L53,95ZM101,89L107,89L107,95L101,95ZM119,89L125,89L125,95L119,95ZM131,89L155,89L155,95L131,95ZM179,89L197,89L197,95L179,95ZM23,95L35,95L35,101L23,101ZM47,95L53,95L53,101L47,101ZM59,95L65,95L65,101L59,101ZM77,95L89,95L89,101L77,101ZM107,95L119,95L119,101L107,101ZM143,95L167,95L167,101L143,101ZM173,95L191,95L191,101L173,101ZM197,95L203,95L203,101L197,101ZM11,101L17,101L17,107L11,107ZM23,101L41,101L41,107L23,107ZM53,101L59,101L59,107L53,107ZM77,101L83,101L83,107L77,107ZM95,101L101,101L101,107L95,107ZM113,101L137,101L137,107L113,107ZM149,101L179,101L179,107L149,107ZM191,101L209,101L209,107L191,107ZM11,107L53,107L53,113L11,113ZM65,107L83,107L83,113L65,113ZM101,107L107,107L107,113L101,113ZM113,107L119,107L119,113L113,113ZM143,107L149,107L149,113L143,113ZM179,107L191,107L191,113L179,113ZM197,107L203,107L203,113L197,113ZM11,113L23,113L23,119L11,119ZM41,113L47,113L47,119L41,119ZM53,113L77,113L77,119L53,119ZM83,113L113,113L113,119L83,119ZM137,113L149,113L149,119L137,119ZM173,113L179,113L179,119L173,119ZM191,113L197,113L197,119L191,119ZM17,119L29,119L29,125L17,125ZM47,119L53,119L53,125L47,125ZM59,119L77,119L77,125L59,125ZM89,119L119,119L119,125L89,125ZM125,119L131,119L131,125L125,125ZM143,119L167,119L167,125L143,125ZM179,119L191,119L191,125L179,125ZM203,119L209,119L209,125L203,125ZM11,125L17,125L17,131L11,131ZM23,125L35,125L35,131L23,131ZM83,125L95,125L95,131L83,131ZM125,125L143,125L143,131L125,131ZM149,125L155,125L155,131L149,131ZM167,125L173,125L173,131L167,131ZM203,125L209,125L209,131L203,131ZM11,131L17,131L17,137L11,137ZM23,131L29,131L29,137L23,137ZM35,131L41,131L41,137L35,137ZM47,131L77,131L77,137L47,137ZM83,131L89,131L89,137L83,137ZM95,131L107,131L107,137L95,137ZM113,131L125,131L125,137L113,137ZM143,131L149,131L149,137L143,137ZM161,131L179,131L179,137L161,137ZM197,131L203,131L203,137L197,137ZM11,137L29,137L29,143L11,143ZM35,137L47,137L47,143L35,143ZM53,137L59,137L59,143L53,143ZM71,137L77,137L77,143L71,143ZM101,137L107,137L107,143L101,143ZM119,137L125,137L125,143L119,143ZM131,137L155,137L155,143L131,143ZM173,137L179,137L179,143L173,143ZM191,137L209,137L209,143L191,143ZM11,143L17,143L17,149L11,149ZM41,143L53,143L53,149L41,149ZM59,143L89,143L89,149L59,149ZM107,143L125,143L125,149L107,149ZM131,143L137,143L137,149L131,149ZM143,143L167,143L167,149L143,149ZM179,143L185,143L185,149L179,149ZM203,143L209,143L209,149L203,149ZM11,149L17,149L17,155L11,155ZM29,149L35,149L35,155L29,155ZM59,149L83,149L83,155L59,155ZM95,149L101,149L101,155L95,155ZM113,149L137,149L137,155L113,155ZM149,149L155,149L155,155L149,155ZM167,149L173,149L173,155L167,155ZM185,149L191,149L191,155L185,155ZM197,149L209,149L209,155L197,155ZM11,155L17,155L17,161L11,161ZM23,155L29,155L29,161L23,161ZM35,155L59,155L59,161L35,161ZM65,155L71,155L71,161L65,161ZM77,155L83,155L83,161L77,161ZM101,155L107,155L107,161L101,161ZM113,155L119,155L119,161L113,161ZM131,155L149,155L149,161L131,161ZM155,155L191,155L191,161L155,161ZM59,161L71,161L71,167L59,167ZM83,161L107,161L107,167L83,167ZM131,161L143,161L143,167L131,167ZM149,161L161,161L161,167L149,167ZM179,161L185,161L185,167L179,167ZM191,161L197,161L197,167L191,167ZM11,167L53,167L53,173L11,173ZM59,167L65,167L65,173L59,173ZM71,167L77,167L77,173L71,173ZM89,167L101,167L101,173L89,173ZM107,167L119,167L119,173L107,173ZM131,167L137,167L137,173L131,173ZM143,167L161,167L161,173L143,173ZM167,167L173,167L173,173L167,173ZM179,167L185,167L185,173L179,173ZM197,167L203,167L203,173L197,173ZM11,173L17,173L17,179L11,179ZM47,173L53,173L53,179L47,179ZM71,173L77,173L77,179L71,179ZM83,173L95,173L95,179L83,179ZM113,173L143,173L143,179L113,179ZM155,173L161,173L161,179L155,179ZM179,173L191,173L191,179L179,179ZM203,173L209,173L209,179L203,179ZM11,179L17,179L17,185L11,185ZM23,179L41,179L41,185L23,185ZM47,179L53,179L53,185L47,185ZM59,179L65,179L65,185L59,185ZM83,179L89,179L89,185L83,185ZM95,179L113,179L113,185L95,185ZM119,179L125,179L125,185L119,185ZM131,179L149,179L149,185L131,185ZM155,179L191,179L191,185L155,185ZM203,179L209,179L209,185L203,185ZM11,185L17,185L17,191L11,191ZM23,185L41,185L41,191L23,191ZM47,185L53,185L53,191L47,191ZM59,185L65,185L65,191L59,191ZM71,185L77,185L77,191L71,191ZM137,185L149,185L149,191L137,191ZM161,185L167,185L167,191L161,191ZM173,185L179,185L179,191L173,191ZM185,185L203,185L203,191L185,191ZM11,191L17,191L17,197L11,197ZM23,191L41,191L41,197L23,197ZM47,191L53,191L53,197L47,197ZM59,191L71,191L71,197L59,197ZM77,191L89,191L89,197L77,197ZM101,191L119,191L119,197L101,197ZM149,191L167,191L167,197L149,197ZM173,191L179,191L179,197L173,197ZM11,197L17,197L17,203L11,203ZM47,197L53,197L53,203L47,203ZM59,197L83,197L83,203L59,203ZM95,197L101,197L101,203L95,203ZM119,197L137,197L137,203L119,203ZM179,197L185,197L185,203L179,203ZM191,197L209,197L209,203L191,203ZM11,203L53,203L53,209L11,209ZM59,203L71,203L71,209L59,209ZM77,203L83,203L83,209L77,209ZM101,203L107,203L107,209L101,209ZM131,203L155,203L155,209L131,209ZM167,203L173,203L173,209L167,209ZM185,203L203,203L203,209L185,209Z"/></svg>
