<?xml version="1.0"?>
<svg xmlns="http://www.w3.org/2000/svg" xmlns:xlink="http://www.w3.org/1999/xlink" version="1.1" width="220px" height="220px" viewBox="0 0 220 220"><rect x="0" y="0" width="220" height="220" fill="#ffffff" fill-opacity="1"/><path fill="#000000" fill-opacity="1" d="M17,17L52,17L52,22L17,22ZM67,17L72,17L72,22L67,22ZM77,17L87,17L87,22L77,22ZM92,17L97,17L97,22L92,22ZM107,17L112,17L112,22L107,22ZM122,17L132,17L132,22L122,22ZM147,17L157,17L157,22L147,22ZM167,17L202,17L202,22L167,22ZM17,22L22,22L22,27L17,27ZM47,22L52,22L52,27L47,27ZM57,22L62,22L62,27L57,27ZM67,22L72,22L72,27L67,27ZM82,22L97,22L97,27L82,27ZM102,22L107,22L107,27L102,27ZM117,22L122,22L122,27L117,27ZM132,22L157,22L157,27L132,27ZM167,22L172,22L172,27L167,27ZM197,22L202,22L202,27L197,27ZM17,27L22,27L22,32L17,32ZM27,27L42,27L42,32L27,32ZM47,27L52,27L52,32L47,32ZM77,27L87,27L87,32L77,32ZM92,27L97,27L97,32L92,32ZM112,27L122,27L122,32L112,32ZM132,27L137,27L137,32L132,32ZM147,27L152,27L152,32L147,32ZM157,27L162,27L162,32L157,32ZM167,27L172,27L172,32L167,32ZM177,27L192,27L192,32L177,32ZM197,27L202,27L202,32L197,32ZM17,32L22,32L22,37L17,37ZM27,32L42,32L42,37L27,37ZM47,32L52,32L52,37L47,37ZM57,32L72,32L72,37L57,37ZM77,32L82,32L82,37L77,37ZM87,32L97,32L97,37L87,37ZM107,32L112,32L112,37L107,37ZM117,32L122,32L122,37L117,37ZM127,32L132,32L132,37L127,37ZM152,32L162,32L162,37L152,37ZM167,32L172,32L172,37L167,37ZM177,32L192,32L192,37L177,37ZM197,32L202,32L202,37L197,37ZM17,37L22,37L22,42L17,42ZM27,37L42,37L42,42L27,42ZM47,37L52,37L52,42L47,42ZM62,37L67,37L67,42L62,42ZM107,37L112,37L112,42L107,42ZM122,37L127,37L127,42L122,42ZM132,37L137,37L137,42L132,42ZM157,37L162,37L162,42L157,42ZM167,37L172,37L172,42L167,42ZM177,37L192,37L192,42L177,42ZM197,37L202,37L202,42L197,42ZM17,42L22,42L22,47L17,47ZM47,42L52,42L52,47L47,47ZM57,42L67,42L67,47L57,47ZM72,42L82,42L82,47L72,47ZM92,42L107,42L107,47L92,47ZM127,42L152,42L152,47L127,47ZM167,42L172,42L172,47L167,47ZM197,42L202,42L202,47L197,47ZM17,47L52,47L52,52L17,52ZM57,47L62,47L62,52L57,52ZM67,47L72,47L72,52L67,52ZM77,47L82,47L82,52L77,52ZM87,47L92,47L92,52L87,52ZM97,47L102,47L102,52L97,52ZM107,47L112,47L112,52L107,52ZM117,47L122,47L122,52L117,52ZM127,47L132,47L132,52L127,52ZM137,47L142,47L142,52L137,52ZM147,47L152,47L152,52L147,52ZM157,47L162,47L162,52L157,52ZM167,47L202,47L202,52L167,52ZM62,52L77,52L77,57L62,57ZM87,52L92,52L92,57L87,57ZM112,52L127,52L127,57L112,57ZM132,52L137,52L137,57L132,57ZM147,52L152,52L152,57L147,57ZM17,57L42,57L42,62L17,62ZM47,57L67,57L67,62L47,62ZM72,57L77,57L77,62L72,62ZM92,57L97,57L97,62L92,62ZM102,57L112,57L112,62L102,62ZM127,57L132,57L132,62L127,62ZM152,57L167,57L167,62L152,62ZM172,57L177,57L177,62L172,62ZM182,57L187,57L187,62L182,62ZM192,57L197,57L197,62L192,62ZM22,62L27,62L27,67L22,67ZM37,62L42,62L42,67L37,67ZM57,62L62,62L62,67L57,67ZM67,62L72,62L72,67L67,67ZM77,62L92,62L92,67L77,67ZM112,62L142,62L142,67L112,67ZM152,62L167,62L167,67L152,67ZM172,62L177,62L177,67L172,67ZM197,62L202,62L202,67L197,67ZM22,67L42,67L42,72L22,72ZM47,67L52,67L52,72L47,72ZM57,67L67,67L67,72L57,72ZM82,67L117,67L117,72L82,72ZM127,67L132,67L132,72L127,72ZM137,67L157,67L157,72L137,72ZM162,67L172,67L172,72L162,72ZM177,67L182,67L182,72L177,72ZM187,67L192,67L192,72L187,72ZM197,67L202,67L202,72L197,72ZM17,72L22,72L22,77L17,77ZM27,72L37,72L37,77L27,77ZM52,72L62,72L62,77L52,77ZM77,72L87,72L87,77L77,77ZM97,72L117,72L117,77L97,77ZM132,72L137,72L137,77L132,77ZM147,72L152,72L152,77L147,77ZM157,72L162,72L162,77L157,77ZM172,72L177,72L177,77L172,77ZM182,72L187,72L187,77L182,77ZM192,72L197,72L197,77L192,77ZM17,77L22,77L22,82L17,82ZM27,77L32,77L32,82L27,82ZM42,77L52,77L52,82L42,82ZM62,77L72,77L72,82L62,82ZM77,77L82,77L82,82L77,82ZM87,77L107,77L107,82L87,82ZM127,77L132,77L132,82L127,82ZM142,77L147,77L147,82L142,82ZM152,77L157,77L157,82L152,82ZM162,77L167,77L167,82L162,82ZM172,77L182,77L182,82L172,82ZM187,77L202,77L202,82L187,82ZM17,82L27,82L27,87L17,87ZM37,82L42,82L42,87L37,87ZM52,82L57,82L57,87L52,87ZM62,82L67,82L67,87L62,87ZM97,82L102,82L102,87L97,87ZM107,82L112,82L112,87L107,87ZM117,82L132,82L132,87L117,87ZM147,82L152,82L152,87L147,87ZM167,82L187,82L187,87L167,87ZM197,82L202,82L202,87L197,87ZM37,87L42,87L42,92L37,92ZM47,87L52,87L52,92L47,92ZM57,87L67,87L67,92L57,92ZM72,87L82,87L82,92L72,92ZM102,87L107,87L107,92L102,92ZM127,87L137,87L137,92L127,92ZM142,87L147,87L147,92L142,92ZM152,87L172,87L172,92L152,92ZM177,87L182,87L182,92L177,92ZM187,87L202,87L202,92L187,92ZM27,92L32,92L32,97L27,97ZM42,92L47,92L47,97L42,97ZM52,92L57,92L57,97L52,97ZM62,92L67,92L67,97L62,97ZM72,92L77,92L77,97L72,97ZM87,92L92,92L92,97L87,97ZM97,92L102,92L102,97L97,97ZM107,92L122,92L122,97L107,97ZM132,92L147,92L147,97L132,97ZM157,92L162,92L162,97L157,97ZM172,92L177,92L177,97L172,97ZM182,92L197,92L197,97L182,97ZM17,97L22,97L22,102L17,102ZM32,97L37,97L37,102L32,102ZM47,97L57,97L57,102L47,102ZM62,97L67,97L67,102L62,102ZM72,97L77,97L77,102L72,102ZM92,97L97,97L97,102L92,102ZM107,97L112,97L112,102L107,102ZM117,97L122,97L122,102L117,102ZM127,97L132,97L132,102L127,102ZM137,97L202,97L202,102L137,102ZM27,102L42,102L42,107L27,107ZM57,102L72,102L72,107L57,107ZM77,102L102,102L102,107L77,107ZM122,102L132,102L132,107L122,107ZM147,102L152,102L152,107L147,107ZM157,102L187,102L187,107L157,107ZM197,102L202,102L202,107L197,107ZM17,107L22,107L22,112L17,112ZM27,107L37,107L37,112L27,112ZM42,107L57,107L57,112L42,112ZM67,107L72,107L72,112L67,112ZM82,107L107,107L107,112L82,112ZM112,107L117,107L117,112L112,112ZM127,107L132,107L132,112L127,112ZM137,107L152,107L152,112L137,112ZM167,107L172,107L172,112L167,112ZM177,107L202,107L202,112L177,112ZM22,112L27,112L27,117L22,117ZM37,112L42,112L42,117L37,117ZM62,112L67,112L67,117L62,117ZM77,112L87,112L87,117L77,117ZM97,112L102,112L102,117L97,117ZM112,112L127,112L127,117L112,117ZM132,112L137,112L137,117L132,117ZM157,112L162,112L162,117L157,117ZM172,112L177,112L177,117L172,117ZM187,112L197,112L197,117L187,117ZM17,117L37,117L37,122L17,122ZM47,117L52,117L52,122L47,122ZM67,117L72,117L72,122L67,122ZM77,117L82,117L82,122L77,122ZM87,117L102,117L102,122L87,122ZM117,117L122,117L122,122L117,122ZM127,117L132,117L132,122L127,122ZM147,117L157,117L157,122L147,122ZM162,117L167,117L167,122L162,122ZM172,117L182,117L182,122L172,122ZM187,117L202,117L202,122L187,122ZM17,122L22,122L22,127L17,127ZM27,122L32,122L32,127L27,127ZM42,122L47,122L47,127L42,127ZM57,122L67,122L67,127L57,127ZM92,122L97,122L97,127L92,127ZM112,122L132,122L132,127L112,127ZM137,122L142,122L142,127L137,127ZM152,122L162,122L162,127L152,127ZM172,122L177,122L177,127L172,127ZM182,122L187,122L187,127L182,127ZM197,122L202,122L202,127L197,127ZM17,127L27,127L27,132L17,132ZM32,127L37,127L37,132L32,132ZM42,127L52,127L52,132L42,132ZM62,127L67,127L67,132L62,132ZM72,127L82,127L82,132L72,132ZM92,127L97,127L97,132L92,132ZM102,127L107,127L107,132L102,132ZM112,127L117,127L117,132L112,132ZM127,127L172,127L172,132L127,132ZM177,127L192,127L192,132L177,132ZM22,132L27,132L27,137L22,137ZM32,132L37,132L37,137L32,137ZM42,132L47,132L47,137L42,137ZM52,132L57,132L57,137L52,137ZM72,132L77,132L77,137L72,137ZM87,132L92,132L92,137L87,137ZM97,132L102,132L102,137L97,137ZM112,132L122,132L122,137L112,137ZM132,132L137,132L137,137L132,137ZM157,132L162,132L162,137L157,137ZM172,132L177,132L177,137L172,137ZM187,132L192,132L192,137L187,137ZM17,137L22,137L22,142L17,142ZM32,137L42,137L42,142L32,142ZM47,137L52,137L52,142L47,142ZM57,137L62,137L62,142L57,142ZM72,137L77,137L77,142L72,142ZM92,137L102,137L102,142L92,142ZM122,137L132,137L132,142L122,142ZM147,137L162,137L162,142L147,142ZM167,137L172,137L172,142L167,142ZM177,137L182,137L182,142L177,142ZM187,137L202,137L202,142L187,142ZM17,142L22,142L22,147L17,147ZM37,142L42,142L42,147L37,147ZM57,142L62,142L62,147L57,147ZM77,142L92,142L92,147L77,147ZM107,142L117,142L117,147L107,147ZM122,142L127,142L127,147L122,147ZM132,142L137,142L137,147L132,147ZM147,142L152,142L152,147L147,147ZM162,142L167,142L167,147L162,147ZM172,142L182,142L182,147L172,147ZM197,142L202,142L202,147L197,147ZM17,147L22,147L22,152L17,152ZM32,147L52,147L52,152L32,152ZM57,147L67,147L67,152L57,152ZM82,147L97,147L97,152L82,152ZM102,147L107,147L107,152L102,152ZM117,147L122,147L122,152L117,152ZM127,147L137,147L137,152L127,152ZM142,147L172,147L172,152L142,152ZM177,147L182,147L182,152L177,152ZM187,147L202,147L202,152L187,152ZM17,152L22,152L22,157L17,157ZM27,152L37,152L37,157L27,157ZM77,152L87,152L87,157L77,157ZM97,152L127,152L127,157L97,157ZM132,152L142,152L142,157L132,157ZM147,152L152,152L152,157L147,157ZM157,152L162,152L162,157L157,157ZM182,152L187,152L187,157L182,157ZM192,152L202,152L202,157L192,157ZM17,157L22,157L22,162L17,162ZM27,157L42,157L42,162L27,162ZM47,157L52,157L52,162L47,162ZM57,157L67,157L67,162L57,162ZM77,157L82,157L82,162L77,162ZM87,157L102,157L102,162L87,162ZM107,157L112,157L112,162L107,162ZM122,157L132,157L132,162L122,162ZM147,157L187,157L187,162L147,162ZM192,157L202,157L202,162L192,162ZM57,162L72,162L72,167L57,167ZM92,162L97,162L97,167L92,167ZM107,162L112,162L112,167L107,167ZM117,162L142,162L142,167L117,167ZM157,162L162,162L162,167L157,167ZM177,162L182,162L182,167L177,167ZM197,162L202,162L202,167L197,167ZM17,167L52,167L52,172L17,172ZM57,167L82,167L82,172L57,172ZM102,167L107,167L107,172L102,172ZM142,167L152,167L152,172L142,172ZM157,167L162,167L162,172L157,172ZM167,167L172,167L172,172L167,172ZM177,167L202,167L202,172L177,172ZM17,172L22,172L22,177L17,177ZM47,172L52,172L52,177L47,177ZM67,172L77,172L77,177L67,177ZM87,172L92,172L92,177L87,177ZM97,172L102,172L102,177L97,177ZM107,172L122,172L122,177L107,177ZM132,172L137,172L137,177L132,177ZM157,172L162,172L162,177L157,177ZM177,172L182,172L182,177L177,177ZM187,172L192,172L192,177L187,177ZM17,177L22,177L22,182L17,182ZM27,177L42,177L42,182L27,182ZM47,177L52,177L52,182L47,182ZM57,177L67,177L67,182L57,182ZM72,177L77,177L77,182L72,182ZM92,177L97,177L97,182L92,182ZM127,177L132,177L132,182L127,182ZM137,177L142,177L142,182L137,182ZM157,177L187,177L187,182L157,182ZM17,182L22,182L22,187L17,187ZM27,182L42,182L42,187L27,187ZM47,182L52,182L52,187L47,187ZM57,182L62,182L62,187L57,187ZM67,182L72,182L72,187L67,187ZM77,182L102,182L102,187L77,187ZM112,182L127,182L127,187L112,187ZM147,182L167,182L167,187L147,187ZM172,182L177,182L177,187L172,187ZM192,182L202,182L202,187L192,187ZM17,187L22,187L22,192L17,192ZM27,187L42,187L42,192L27,192ZM47,187L52,187L52,192L47,192ZM57,187L72,187L72,192L57,192ZM82,187L107,187L107,192L82,192ZM112,187L117,187L117,192L112,192ZM127,187L157,187L157,192L127,192ZM162,187L167,187L167,192L162,192ZM177,187L192,187L192,192L177,192ZM197,187L202,187L202,192L197,192ZM17,192L22,192L22,197L17,197ZM47,192L52,192L52,197L47,197ZM57,192L62,192L62,197L57,197ZM77,192L87,192L87,197L77,197ZM97,192L127,192L127,197L97,197ZM132,192L137,192L137,197L132,197ZM142,192L147,192L147,197L142,197ZM162,192L187,192L187,197L162,197ZM192,192L197,192L197,197L192,197ZM17,197L52,197L52,202L17,202ZM57,197L62,197L62,202L57,202ZM67,197L72,197L72,202L67,202ZM77,197L82,197L82,202L77,202ZM87,197L97,197L97,202L87,202ZM102,197L107,197L107,202L102,202ZM117,197L127,197L127,202L117,202ZM157,197L162,197L162,202L157,202ZM172,197L177,197L177,202L172,202ZM192,197L202,197L202,202L192,202Z"/></svg>
